<?xml version="1.0" standalone="no"?>
<!DOCTYPE svg PUBLIC "-//W3C//DTD SVG 20010904//EN"
 "http://www.w3.org/TR/2001/REC-SVG-20010904/DTD/svg10.dtd">
<svg version="1.0" xmlns="http://www.w3.org/2000/svg"
 width="200.000000pt" height="200.000000pt" viewBox="0 0 200.000000 200.000000"
 preserveAspectRatio="xMidYMid meet">
<metadata>
Created by potrace 1.16, written by Peter Selinger 2001-2019
</metadata>
<g transform="translate(0.000000,200.000000) scale(0.100000,-0.100000)"
fill="#000000" stroke="none">
<path d="M589 1834 c-7 -16 -12 -67 -13 -114 -1 -76 2 -92 32 -154 l32 -69 54
6 c57 6 134 40 185 82 l31 27 1 -614 0 -613 43 -109 c23 -60 45 -105 49 -99 3
5 22 54 42 109 l35 99 0 613 0 614 33 -28 c50 -43 146 -84 195 -84 43 0 43 0
72 61 35 74 44 154 28 234 l-13 60 -80 -1 c-89 0 -163 -21 -222 -61 -51 -35
-146 -38 -187 -5 -46 36 -136 64 -223 69 l-82 6 -12 -29z"/>
<path d="M316 1688 c-14 -24 -48 -101 -77 -171 l-52 -128 23 -24 c13 -14 63
-45 112 -70 48 -25 88 -48 88 -50 0 -2 -31 -35 -70 -74 -47 -47 -70 -77 -70
-93 0 -77 200 -391 471 -738 127 -162 185 -227 195 -217 12 12 -93 324 -322
956 -176 482 -243 651 -259 651 -8 0 -25 -19 -39 -42z"/>
<path d="M1580 1598 c-159 -408 -520 -1425 -520 -1465 0 -7 4 -13 10 -13 24 0
343 413 493 640 100 151 152 248 162 303 7 37 5 40 -64 106 -39 37 -71 71 -71
74 0 3 40 27 88 52 49 25 99 56 112 70 l23 24 -53 128 c-62 151 -96 213 -115
213 -8 0 -33 -51 -65 -132z"/>
</g>
</svg>
